<svg width="1851" height="450" viewBox="0 0 1851 450" fill="none" xmlns="http://www.w3.org/2000/svg">
<rect x="9.5" y="9.5" width="1832" height="431" rx="40.5" fill="url(#paint0_linear_534_133)"/>
<rect x="9.5" y="9.5" width="1832" height="431" rx="40.5" stroke="#006504" stroke-width="19"/>
<g filter="url(#filter0_d_534_133)">
<mask id="path-2-outside-1_534_133" maskUnits="userSpaceOnUse" x="324" y="106" width="1204" height="289" fill="black">
<rect fill="white" x="324" y="106" width="1204" height="289"/>
<path d="M477.25 171.75C481.583 180.583 483.75 190.417 483.75 201.25C483.75 212.083 481.583 221.917 477.25 230.75C472.917 239.417 467.333 246.333 460.5 251.5C446.667 262.167 432.333 267.5 417.5 267.5H386.25V295.75C386.25 299.583 386.083 302.5 385.75 304.5C385.583 306.333 384.833 308.5 383.5 311C381.167 315.5 374.667 317.75 364 317.75C352.333 317.75 345.5 314.667 343.5 308.5C342.5 305.667 342 301.333 342 295.5V156.75C342 152.917 342.083 150.083 342.25 148.25C342.583 146.25 343.417 144 344.75 141.5C347.083 137 353.583 134.75 364.25 134.75H417.75C432.417 134.75 446.667 140.083 460.5 150.75C467.333 155.917 472.917 162.917 477.25 171.75ZM417.75 223.25C422.75 223.25 427.667 221.417 432.5 217.75C437.333 214.083 439.75 208.583 439.75 201.25C439.75 193.917 437.333 188.417 432.5 184.75C427.667 180.917 422.667 179 417.5 179H386.25V223.25H417.75ZM499.959 146.25C499.959 142.417 500.042 139.583 500.209 137.75C500.542 135.75 501.292 133.5 502.459 131C504.792 126.5 511.292 124.25 521.959 124.25C532.126 124.25 538.459 126.5 540.959 131C542.292 133.5 543.042 135.75 543.209 137.75C543.542 139.75 543.709 142.667 543.709 146.5V262.25C543.709 268.25 544.209 272.083 545.209 273.75C546.209 275.25 548.376 276 551.709 276C555.209 276 557.542 276.167 558.709 276.5C559.876 276.667 561.292 277.333 562.959 278.5C566.292 280.667 567.959 286.583 567.959 296.25C567.959 306.75 566.292 313.167 562.959 315.5C558.626 318.5 548.292 319 531.959 317C519.126 315.333 510.792 311.083 506.959 304.25C502.292 296.083 499.959 283.083 499.959 265.25V146.25ZM667.246 200.25C668.246 190.917 674.829 186.25 686.996 186.25C693.496 186.25 698.329 186.75 701.496 187.75C704.663 188.75 706.829 190.5 707.996 193C709.329 195.5 710.079 197.75 710.246 199.75C710.579 201.583 710.746 204.417 710.746 208.25V295.75C710.746 299.583 710.579 302.5 710.246 304.5C710.079 306.333 709.413 308.5 708.246 311C705.913 315.333 700.163 317.5 690.996 317.5C681.996 317.5 675.913 316.417 672.746 314.25C669.746 311.917 667.996 308.583 667.496 304.25C661.329 313.083 650.996 317.5 636.496 317.5C622.163 317.5 608.829 310.917 596.496 297.75C584.163 284.583 577.996 269.333 577.996 252C577.996 234.5 584.163 219.25 596.496 206.25C608.996 193.083 622.663 186.5 637.496 186.5C643.163 186.5 648.329 187.5 652.996 189.5C657.663 191.5 660.913 193.417 662.746 195.25C664.579 196.917 666.079 198.583 667.246 200.25ZM621.746 252.25C621.746 257.75 623.913 262.75 628.246 267.25C632.579 271.583 637.829 273.75 643.996 273.75C650.163 273.75 655.246 271.5 659.246 267C663.413 262.5 665.496 257.583 665.496 252.25C665.496 246.75 663.496 241.667 659.496 237C655.663 232.333 650.413 230 643.746 230C637.246 230 631.913 232.333 627.746 237C623.746 241.667 621.746 246.75 621.746 252.25ZM848.289 187.75C858.122 192.083 863.039 197.333 863.039 203.5C863.039 206.5 862.372 209.333 861.039 212C859.706 214.667 859.039 216.083 859.039 216.25L793.539 362.75C792.206 365.917 791.039 368.333 790.039 370C789.206 371.667 787.789 373.25 785.789 374.75C783.789 376.25 781.289 377 778.289 377C775.289 377 770.872 375.75 765.039 373.25C755.206 368.917 750.289 363.75 750.289 357.75C750.289 353.75 758.289 334.667 774.289 300.5L724.539 216.75C721.206 211.25 719.539 207.167 719.539 204.5C719.539 199.167 724.039 193.833 733.039 188.5C738.706 185.167 743.122 183.5 746.289 183.5C749.456 183.5 752.039 184.167 754.039 185.5C756.039 186.833 757.456 188.25 758.289 189.75C759.289 191.083 763.872 198.833 772.039 213C780.372 227 788.289 240.083 795.789 252.25C796.622 249.583 801.122 239.333 809.289 221.5C817.456 203.5 821.789 193.917 822.289 192.75C822.956 191.583 823.956 190.167 825.289 188.5C827.456 185.667 830.456 184.25 834.289 184.25C838.289 184.25 842.956 185.417 848.289 187.75ZM1058.15 142.5C1059.82 139.5 1062.23 137.5 1065.4 136.5C1068.57 135.5 1072.48 135 1077.15 135C1081.98 135 1085.82 135.417 1088.65 136.25C1091.65 137.083 1093.82 138.083 1095.15 139.25C1096.65 140.417 1097.73 142.167 1098.4 144.5C1099.4 147.167 1099.9 151.417 1099.9 157.25V296C1099.9 300 1099.73 302.917 1099.4 304.75C1099.23 306.583 1098.48 308.75 1097.15 311.25C1094.82 315.75 1088.32 318 1077.65 318C1071.15 318 1066.65 317.5 1064.15 316.5C1061.65 315.5 1059.57 313.917 1057.9 311.75C1020.4 261.75 995.734 229.083 983.9 213.75V296C983.9 300 983.734 302.917 983.4 304.75C983.234 306.583 982.484 308.75 981.15 311.25C978.817 315.75 972.317 318 961.65 318C951.317 318 944.984 315.75 942.65 311.25C941.317 308.75 940.484 306.5 940.15 304.5C939.984 302.5 939.9 299.583 939.9 295.75V156.25C939.9 149.917 940.65 145.333 942.15 142.5C943.817 139.5 946.234 137.5 949.4 136.5C952.567 135.5 956.65 135 961.65 135C966.65 135 970.567 135.5 973.4 136.5C976.4 137.333 978.484 138.333 979.65 139.5C980.317 140 982.234 142.167 985.4 146C1020.57 193.833 1044.07 225.417 1055.9 240.75V156.25C1055.9 149.917 1056.65 145.333 1058.15 142.5ZM1116.08 252.25C1116.08 232.25 1123.08 215.75 1137.08 202.75C1151.08 189.75 1167.08 183.25 1185.08 183.25C1203.08 183.25 1219 189.75 1232.83 202.75C1246.67 215.583 1253.58 232 1253.58 252C1253.58 265.833 1250 278.167 1242.83 289C1235.67 299.667 1226.92 307.583 1216.58 312.75C1206.42 317.75 1195.83 320.25 1184.83 320.25C1173.83 320.25 1163.17 317.583 1152.83 312.25C1142.5 306.75 1133.75 298.75 1126.58 288.25C1119.58 277.583 1116.08 265.583 1116.08 252.25ZM1168.33 270.25C1173.67 274.25 1179.08 276.25 1184.58 276.25C1190.08 276.25 1195.58 274.167 1201.08 270C1206.58 265.833 1209.33 259.667 1209.33 251.5C1209.33 243.333 1206.75 237.25 1201.58 233.25C1196.42 229.25 1190.83 227.25 1184.83 227.25C1178.83 227.25 1173.25 229.333 1168.08 233.5C1162.92 237.667 1160.33 243.833 1160.33 252C1160.33 260 1163 266.083 1168.33 270.25ZM1433.35 187.25C1444.02 191.917 1449.35 197.667 1449.35 204.5C1449.35 207.333 1448.02 211.917 1445.35 218.25C1442.68 224.417 1440.43 229.833 1438.6 234.5L1411.1 301.5C1408.6 308.833 1404.43 314 1398.6 317C1396.1 318.167 1392.93 318.75 1389.1 318.75C1385.27 318.75 1381.52 317.333 1377.85 314.5C1374.35 311.5 1372.02 308.5 1370.85 305.5L1368.85 301.25C1367.52 297.917 1362.6 284.917 1354.1 262.25C1352.43 266.25 1349.93 272.833 1346.6 282C1343.43 291 1341.35 296.667 1340.35 299C1339.52 301.167 1338.93 302.667 1338.6 303.5C1338.43 304.167 1337.77 305.5 1336.6 307.5C1335.43 309.5 1334.1 311.25 1332.6 312.75C1328.6 316.75 1324.02 318.75 1318.85 318.75C1313.68 318.75 1309.35 317.333 1305.85 314.5C1302.35 311.5 1300.02 308.5 1298.85 305.5L1261.1 213.5C1259.43 208.5 1258.6 205.25 1258.6 203.75C1258.6 197.083 1263.35 191.833 1272.85 188C1278.18 185.833 1282.52 184.75 1285.85 184.75C1289.18 184.75 1291.85 185.5 1293.85 187C1296.02 188.333 1297.52 189.75 1298.35 191.25C1299.18 192.583 1299.85 194 1300.35 195.5C1303.18 202.167 1309.1 217.833 1318.1 242.5L1332.85 202C1333.85 198.667 1335.68 195.75 1338.35 193.25C1343.18 188.417 1348.1 186 1353.1 186C1358.1 186 1362.35 187.333 1365.85 190C1369.52 192.667 1372.02 195.333 1373.35 198L1375.35 202.25C1383.68 225.583 1388.6 238.917 1390.1 242.25L1405.35 200.75C1409.35 190.083 1415.35 184.75 1423.35 184.75C1426.52 184.75 1429.85 185.583 1433.35 187.25ZM1465.59 280C1467.26 276.667 1469.76 274.417 1473.09 273.25C1476.59 272.083 1481.93 271.5 1489.09 271.5C1496.43 271.5 1501.68 273.083 1504.84 276.25C1508.18 279.417 1509.84 284.417 1509.84 291.25V295.25C1509.84 299.25 1509.68 302.25 1509.34 304.25C1509.18 306.083 1508.43 308.333 1507.09 311C1504.43 315.833 1498.01 318.25 1487.84 318.25C1477.84 318.25 1471.18 316.667 1467.84 313.5C1464.68 310.167 1463.09 303.833 1463.09 294.5C1463.09 288 1463.93 283.167 1465.59 280ZM1499.09 250.75C1495.93 251.583 1491.68 252 1486.34 252C1481.01 252 1476.76 251.583 1473.59 250.75C1470.43 249.917 1468.18 248.417 1466.84 246.25C1465.68 244.083 1464.93 242.167 1464.59 240.5C1464.43 238.833 1464.34 236.25 1464.34 232.75V153.5C1464.34 150 1464.43 147.417 1464.59 145.75C1464.93 143.917 1465.76 141.917 1467.09 139.75C1468.43 137.583 1470.68 136.083 1473.84 135.25C1477.01 134.25 1481.26 133.75 1486.59 133.75C1491.93 133.75 1496.18 134.25 1499.34 135.25C1502.51 136.083 1504.68 137.667 1505.84 140C1507.18 142.167 1507.93 144.167 1508.09 146C1508.43 147.667 1508.59 150.25 1508.59 153.75V233C1508.59 236.5 1508.43 239.083 1508.09 240.75C1507.93 242.417 1507.18 244.333 1505.84 246.5C1504.51 248.5 1502.26 249.917 1499.09 250.75Z"/>
</mask>
<path d="M477.25 171.75C481.583 180.583 483.75 190.417 483.75 201.25C483.75 212.083 481.583 221.917 477.25 230.75C472.917 239.417 467.333 246.333 460.5 251.5C446.667 262.167 432.333 267.5 417.5 267.5H386.25V295.75C386.25 299.583 386.083 302.5 385.75 304.5C385.583 306.333 384.833 308.5 383.5 311C381.167 315.5 374.667 317.75 364 317.75C352.333 317.75 345.5 314.667 343.5 308.5C342.5 305.667 342 301.333 342 295.5V156.75C342 152.917 342.083 150.083 342.25 148.25C342.583 146.25 343.417 144 344.75 141.5C347.083 137 353.583 134.75 364.25 134.75H417.75C432.417 134.75 446.667 140.083 460.5 150.75C467.333 155.917 472.917 162.917 477.25 171.75ZM417.75 223.25C422.75 223.25 427.667 221.417 432.5 217.75C437.333 214.083 439.75 208.583 439.75 201.25C439.75 193.917 437.333 188.417 432.5 184.75C427.667 180.917 422.667 179 417.5 179H386.25V223.25H417.75ZM499.959 146.25C499.959 142.417 500.042 139.583 500.209 137.75C500.542 135.75 501.292 133.5 502.459 131C504.792 126.5 511.292 124.25 521.959 124.25C532.126 124.25 538.459 126.5 540.959 131C542.292 133.5 543.042 135.75 543.209 137.75C543.542 139.75 543.709 142.667 543.709 146.5V262.25C543.709 268.25 544.209 272.083 545.209 273.75C546.209 275.25 548.376 276 551.709 276C555.209 276 557.542 276.167 558.709 276.5C559.876 276.667 561.292 277.333 562.959 278.5C566.292 280.667 567.959 286.583 567.959 296.25C567.959 306.75 566.292 313.167 562.959 315.5C558.626 318.5 548.292 319 531.959 317C519.126 315.333 510.792 311.083 506.959 304.25C502.292 296.083 499.959 283.083 499.959 265.25V146.25ZM667.246 200.25C668.246 190.917 674.829 186.25 686.996 186.25C693.496 186.25 698.329 186.75 701.496 187.75C704.663 188.75 706.829 190.5 707.996 193C709.329 195.5 710.079 197.75 710.246 199.75C710.579 201.583 710.746 204.417 710.746 208.25V295.75C710.746 299.583 710.579 302.5 710.246 304.5C710.079 306.333 709.413 308.5 708.246 311C705.913 315.333 700.163 317.5 690.996 317.5C681.996 317.5 675.913 316.417 672.746 314.25C669.746 311.917 667.996 308.583 667.496 304.25C661.329 313.083 650.996 317.5 636.496 317.5C622.163 317.5 608.829 310.917 596.496 297.75C584.163 284.583 577.996 269.333 577.996 252C577.996 234.5 584.163 219.25 596.496 206.25C608.996 193.083 622.663 186.5 637.496 186.5C643.163 186.5 648.329 187.5 652.996 189.5C657.663 191.5 660.913 193.417 662.746 195.25C664.579 196.917 666.079 198.583 667.246 200.25ZM621.746 252.25C621.746 257.75 623.913 262.75 628.246 267.25C632.579 271.583 637.829 273.75 643.996 273.75C650.163 273.75 655.246 271.5 659.246 267C663.413 262.5 665.496 257.583 665.496 252.25C665.496 246.75 663.496 241.667 659.496 237C655.663 232.333 650.413 230 643.746 230C637.246 230 631.913 232.333 627.746 237C623.746 241.667 621.746 246.75 621.746 252.25ZM848.289 187.75C858.122 192.083 863.039 197.333 863.039 203.5C863.039 206.5 862.372 209.333 861.039 212C859.706 214.667 859.039 216.083 859.039 216.25L793.539 362.75C792.206 365.917 791.039 368.333 790.039 370C789.206 371.667 787.789 373.25 785.789 374.75C783.789 376.25 781.289 377 778.289 377C775.289 377 770.872 375.75 765.039 373.25C755.206 368.917 750.289 363.75 750.289 357.75C750.289 353.75 758.289 334.667 774.289 300.5L724.539 216.75C721.206 211.25 719.539 207.167 719.539 204.5C719.539 199.167 724.039 193.833 733.039 188.5C738.706 185.167 743.122 183.5 746.289 183.5C749.456 183.5 752.039 184.167 754.039 185.5C756.039 186.833 757.456 188.25 758.289 189.75C759.289 191.083 763.872 198.833 772.039 213C780.372 227 788.289 240.083 795.789 252.25C796.622 249.583 801.122 239.333 809.289 221.5C817.456 203.5 821.789 193.917 822.289 192.75C822.956 191.583 823.956 190.167 825.289 188.5C827.456 185.667 830.456 184.25 834.289 184.25C838.289 184.25 842.956 185.417 848.289 187.75ZM1058.15 142.5C1059.82 139.5 1062.23 137.5 1065.4 136.5C1068.57 135.5 1072.48 135 1077.15 135C1081.98 135 1085.82 135.417 1088.65 136.25C1091.65 137.083 1093.82 138.083 1095.15 139.25C1096.65 140.417 1097.73 142.167 1098.4 144.5C1099.4 147.167 1099.9 151.417 1099.9 157.25V296C1099.9 300 1099.73 302.917 1099.4 304.75C1099.23 306.583 1098.48 308.75 1097.15 311.25C1094.82 315.75 1088.32 318 1077.65 318C1071.15 318 1066.65 317.5 1064.15 316.5C1061.65 315.5 1059.57 313.917 1057.9 311.75C1020.4 261.75 995.734 229.083 983.9 213.75V296C983.9 300 983.734 302.917 983.4 304.75C983.234 306.583 982.484 308.75 981.15 311.25C978.817 315.75 972.317 318 961.65 318C951.317 318 944.984 315.75 942.65 311.25C941.317 308.75 940.484 306.5 940.15 304.5C939.984 302.5 939.9 299.583 939.9 295.75V156.25C939.9 149.917 940.65 145.333 942.15 142.5C943.817 139.5 946.234 137.5 949.4 136.5C952.567 135.5 956.65 135 961.65 135C966.65 135 970.567 135.5 973.4 136.5C976.4 137.333 978.484 138.333 979.65 139.5C980.317 140 982.234 142.167 985.4 146C1020.57 193.833 1044.07 225.417 1055.9 240.75V156.25C1055.9 149.917 1056.65 145.333 1058.15 142.5ZM1116.08 252.25C1116.08 232.25 1123.08 215.75 1137.08 202.75C1151.08 189.75 1167.08 183.25 1185.08 183.25C1203.08 183.25 1219 189.75 1232.83 202.75C1246.67 215.583 1253.58 232 1253.58 252C1253.58 265.833 1250 278.167 1242.83 289C1235.67 299.667 1226.92 307.583 1216.58 312.75C1206.42 317.75 1195.83 320.25 1184.83 320.25C1173.83 320.25 1163.17 317.583 1152.83 312.25C1142.5 306.75 1133.75 298.75 1126.58 288.25C1119.58 277.583 1116.08 265.583 1116.08 252.25ZM1168.33 270.25C1173.67 274.25 1179.08 276.25 1184.58 276.25C1190.08 276.25 1195.58 274.167 1201.08 270C1206.58 265.833 1209.33 259.667 1209.33 251.5C1209.33 243.333 1206.75 237.25 1201.58 233.25C1196.42 229.25 1190.83 227.25 1184.83 227.25C1178.83 227.25 1173.25 229.333 1168.08 233.5C1162.92 237.667 1160.33 243.833 1160.33 252C1160.33 260 1163 266.083 1168.33 270.25ZM1433.35 187.25C1444.02 191.917 1449.35 197.667 1449.35 204.5C1449.35 207.333 1448.02 211.917 1445.35 218.25C1442.68 224.417 1440.43 229.833 1438.6 234.5L1411.1 301.5C1408.6 308.833 1404.43 314 1398.6 317C1396.1 318.167 1392.93 318.75 1389.1 318.75C1385.27 318.75 1381.52 317.333 1377.85 314.5C1374.35 311.5 1372.02 308.5 1370.85 305.5L1368.85 301.25C1367.52 297.917 1362.6 284.917 1354.1 262.25C1352.43 266.25 1349.93 272.833 1346.6 282C1343.43 291 1341.35 296.667 1340.35 299C1339.52 301.167 1338.93 302.667 1338.6 303.5C1338.43 304.167 1337.77 305.5 1336.6 307.5C1335.43 309.5 1334.1 311.25 1332.6 312.75C1328.6 316.75 1324.02 318.75 1318.85 318.75C1313.68 318.75 1309.35 317.333 1305.85 314.5C1302.35 311.5 1300.02 308.5 1298.85 305.5L1261.1 213.5C1259.43 208.5 1258.6 205.25 1258.6 203.75C1258.6 197.083 1263.35 191.833 1272.85 188C1278.18 185.833 1282.52 184.75 1285.85 184.75C1289.18 184.75 1291.85 185.5 1293.85 187C1296.02 188.333 1297.52 189.75 1298.35 191.25C1299.18 192.583 1299.85 194 1300.35 195.5C1303.18 202.167 1309.1 217.833 1318.1 242.5L1332.85 202C1333.85 198.667 1335.68 195.75 1338.35 193.25C1343.18 188.417 1348.1 186 1353.1 186C1358.1 186 1362.35 187.333 1365.85 190C1369.52 192.667 1372.02 195.333 1373.35 198L1375.35 202.25C1383.68 225.583 1388.6 238.917 1390.1 242.25L1405.35 200.75C1409.35 190.083 1415.35 184.75 1423.35 184.75C1426.52 184.75 1429.85 185.583 1433.35 187.25ZM1465.59 280C1467.26 276.667 1469.76 274.417 1473.09 273.25C1476.59 272.083 1481.93 271.5 1489.09 271.5C1496.43 271.5 1501.68 273.083 1504.84 276.25C1508.18 279.417 1509.84 284.417 1509.84 291.25V295.25C1509.84 299.25 1509.68 302.25 1509.34 304.25C1509.18 306.083 1508.43 308.333 1507.09 311C1504.43 315.833 1498.01 318.25 1487.84 318.25C1477.84 318.25 1471.18 316.667 1467.84 313.5C1464.68 310.167 1463.09 303.833 1463.09 294.5C1463.09 288 1463.93 283.167 1465.59 280ZM1499.09 250.75C1495.93 251.583 1491.68 252 1486.34 252C1481.01 252 1476.76 251.583 1473.59 250.75C1470.43 249.917 1468.18 248.417 1466.84 246.25C1465.68 244.083 1464.93 242.167 1464.59 240.5C1464.43 238.833 1464.34 236.25 1464.34 232.75V153.5C1464.34 150 1464.43 147.417 1464.59 145.75C1464.93 143.917 1465.76 141.917 1467.09 139.75C1468.43 137.583 1470.68 136.083 1473.84 135.25C1477.01 134.25 1481.26 133.75 1486.59 133.75C1491.93 133.75 1496.18 134.25 1499.34 135.25C1502.51 136.083 1504.68 137.667 1505.84 140C1507.18 142.167 1507.93 144.167 1508.09 146C1508.43 147.667 1508.59 150.25 1508.59 153.75V233C1508.59 236.5 1508.43 239.083 1508.09 240.75C1507.93 242.417 1507.18 244.333 1505.84 246.5C1504.51 248.5 1502.26 249.917 1499.09 250.75Z" fill="url(#paint1_linear_534_133)"/>
<path d="M477.25 171.75L493.41 163.822V163.822L477.25 171.75ZM477.25 230.75L493.35 238.8L493.38 238.739L493.41 238.678L477.25 230.75ZM460.5 251.5L449.644 237.142L449.576 237.194L449.509 237.246L460.5 251.5ZM386.25 267.5V249.5H368.25V267.5H386.25ZM385.75 304.5L367.995 301.541L367.885 302.202L367.824 302.87L385.75 304.5ZM383.5 311L367.618 302.529L367.569 302.622L367.52 302.714L383.5 311ZM343.5 308.5L360.622 302.947L360.551 302.727L360.474 302.509L343.5 308.5ZM342.25 148.25L324.495 145.291L324.385 145.952L324.324 146.62L342.25 148.25ZM344.75 141.5L360.632 149.971L360.682 149.878L360.73 149.786L344.75 141.5ZM460.5 150.75L449.509 165.004L449.576 165.056L449.644 165.108L460.5 150.75ZM432.5 217.75L421.621 203.41L421.621 203.41L432.5 217.75ZM432.5 184.75L421.315 198.853L421.467 198.973L421.621 199.09L432.5 184.75ZM386.25 179V161H368.25V179H386.25ZM386.25 223.25H368.25V241.25H386.25V223.25ZM461.09 179.678C464.094 185.803 465.75 192.883 465.75 201.25H501.75C501.75 187.95 499.072 175.364 493.41 163.822L461.09 179.678ZM465.75 201.25C465.75 209.617 464.094 216.697 461.09 222.822L493.41 238.678C499.072 227.136 501.75 214.55 501.75 201.25H465.75ZM461.15 222.7C457.893 229.216 453.993 233.854 449.644 237.142L471.356 265.858C480.674 258.813 487.941 249.618 493.35 238.8L461.15 222.7ZM449.509 237.246C438.244 245.932 427.681 249.5 417.5 249.5V285.5C436.986 285.5 455.089 278.402 471.491 265.754L449.509 237.246ZM417.5 249.5H386.25V285.5H417.5V249.5ZM368.25 267.5V295.75H404.25V267.5H368.25ZM368.25 295.75C368.25 299.3 368.08 301.031 367.995 301.541L403.505 307.459C404.087 303.969 404.25 299.866 404.25 295.75H368.25ZM367.824 302.87C367.863 302.439 367.925 302.116 367.97 301.917C368.016 301.717 368.053 301.613 368.053 301.612C368.053 301.611 368.026 301.688 367.954 301.85C367.882 302.01 367.774 302.236 367.618 302.529L399.382 319.471C401.3 315.875 403.207 311.292 403.676 306.13L367.824 302.87ZM367.52 302.714C368.271 301.267 369.244 300.259 370.04 299.651C370.773 299.09 371.211 298.975 370.987 299.053C370.764 299.13 370.112 299.319 368.88 299.481C367.663 299.64 366.056 299.75 364 299.75V335.75C370.359 335.75 376.875 335.111 382.763 333.072C388.786 330.987 395.527 326.908 399.48 319.286L367.52 302.714ZM364 299.75C361.846 299.75 360.248 299.605 359.115 299.417C357.971 299.226 357.518 299.026 357.528 299.03C357.572 299.05 358.179 299.336 358.924 300.116C359.713 300.942 360.3 301.953 360.622 302.947L326.378 314.053C332.383 332.568 351.416 335.75 364 335.75V299.75ZM360.474 302.509C360.574 302.793 360.415 302.433 360.256 301.062C360.107 299.764 360 297.941 360 295.5H324C324 301.828 324.474 308.677 326.526 314.491L360.474 302.509ZM360 295.5V156.75H324V295.5H360ZM360 156.75C360 153.011 360.087 150.857 360.176 149.88L324.324 146.62C324.079 149.31 324 152.822 324 156.75H360ZM360.005 151.209C359.954 151.514 359.913 151.56 360.004 151.314C360.094 151.072 360.281 150.628 360.632 149.971L328.868 133.029C326.952 136.622 325.249 140.767 324.495 145.291L360.005 151.209ZM360.73 149.786C359.979 151.233 359.006 152.241 358.21 152.849C357.477 153.41 357.039 153.525 357.263 153.447C357.486 153.37 358.138 153.181 359.37 153.019C360.587 152.86 362.194 152.75 364.25 152.75V116.75C357.891 116.75 351.375 117.389 345.487 119.428C339.464 121.513 332.723 125.592 328.77 133.214L360.73 149.786ZM364.25 152.75H417.75V116.75H364.25V152.75ZM417.75 152.75C427.72 152.75 438.202 156.286 449.509 165.004L471.491 136.496C455.131 123.88 437.114 116.75 417.75 116.75V152.75ZM449.644 165.108C453.918 168.339 457.812 172.996 461.09 179.678L493.41 163.822C488.021 152.837 480.749 143.494 471.356 136.392L449.644 165.108ZM417.75 241.25C427.46 241.25 436.101 237.612 443.379 232.09L421.621 203.41C419.232 205.222 418.04 205.25 417.75 205.25V241.25ZM443.379 232.09C453.652 224.297 457.75 212.899 457.75 201.25H421.75C421.75 202.961 421.468 203.612 421.458 203.634C421.453 203.645 421.483 203.58 421.554 203.49C421.625 203.401 421.666 203.375 421.621 203.41L443.379 232.09ZM457.75 201.25C457.75 189.601 453.652 178.203 443.379 170.41L421.621 199.09C421.666 199.125 421.625 199.099 421.554 199.01C421.483 198.92 421.453 198.855 421.458 198.866C421.468 198.888 421.75 199.539 421.75 201.25H457.75ZM443.685 170.647C436.31 164.798 427.476 161 417.5 161V197C417.857 197 419.023 197.035 421.315 198.853L443.685 170.647ZM417.5 161H386.25V197H417.5V161ZM368.25 179V223.25H404.25V179H368.25ZM386.25 241.25H417.75V205.25H386.25V241.25ZM500.209 137.75L482.454 134.791L482.344 135.452L482.283 136.12L500.209 137.75ZM502.459 131L486.479 122.714L486.307 123.048L486.148 123.388L502.459 131ZM540.959 131L556.841 122.529L556.769 122.393L556.694 122.258L540.959 131ZM543.209 137.75L525.271 139.245L525.332 139.981L525.454 140.709L543.209 137.75ZM545.209 273.75L529.774 283.011L529.994 283.378L530.232 283.735L545.209 273.75ZM558.709 276.5L553.764 293.807L554.946 294.145L556.163 294.319L558.709 276.5ZM562.959 278.5L552.637 293.246L552.89 293.423L553.149 293.592L562.959 278.5ZM562.959 315.5L573.205 330.299L573.243 330.273L573.281 330.246L562.959 315.5ZM531.959 317L529.641 334.85L529.706 334.859L529.771 334.867L531.959 317ZM506.959 304.25L522.658 295.443L522.623 295.381L522.587 295.32L506.959 304.25ZM517.959 146.25C517.959 142.511 518.046 140.357 518.135 139.38L482.283 136.12C482.038 138.81 481.959 142.322 481.959 146.25H517.959ZM517.964 140.709C517.953 140.777 517.972 140.633 518.098 140.255C518.223 139.879 518.433 139.335 518.77 138.612L486.148 123.388C484.521 126.873 483.132 130.721 482.454 134.791L517.964 140.709ZM518.439 139.286C517.688 140.733 516.715 141.741 515.919 142.349C515.186 142.91 514.748 143.025 514.972 142.947C515.195 142.87 515.847 142.681 517.079 142.519C518.296 142.36 519.903 142.25 521.959 142.25V106.25C515.6 106.25 509.084 106.889 503.196 108.928C497.173 111.013 490.432 115.092 486.479 122.714L518.439 139.286ZM521.959 142.25C523.858 142.25 525.33 142.356 526.433 142.507C527.548 142.659 528.127 142.834 528.308 142.899C528.485 142.962 528.091 142.85 527.436 142.349C526.732 141.811 525.895 140.949 525.224 139.742L556.694 122.258C552.734 115.131 546.366 111.11 540.36 108.976C534.534 106.906 528.152 106.25 521.959 106.25V142.25ZM525.077 139.471C525.213 139.727 525.306 139.922 525.365 140.058C525.425 140.195 525.447 140.259 525.445 140.255C525.444 140.25 525.415 140.163 525.379 139.998C525.344 139.833 525.299 139.579 525.271 139.245L561.147 136.255C560.711 131.028 558.887 126.365 556.841 122.529L525.077 139.471ZM525.454 140.709C525.539 141.219 525.709 142.95 525.709 146.5H561.709C561.709 142.384 561.546 138.281 560.964 134.791L525.454 140.709ZM525.709 146.5V262.25H561.709V146.5H525.709ZM525.709 262.25C525.709 265.654 525.846 268.966 526.235 271.953C526.551 274.374 527.278 278.851 529.774 283.011L560.644 264.489C561.119 265.281 561.416 265.95 561.592 266.393C561.77 266.844 561.87 267.181 561.918 267.358C562.007 267.683 561.986 267.708 561.933 267.297C561.883 266.914 561.824 266.307 561.78 265.43C561.735 264.562 561.709 263.508 561.709 262.25H525.709ZM530.232 283.735C536.596 293.281 547.279 294 551.709 294V258C551.22 258 552.013 257.923 553.472 258.428C555.083 258.986 557.973 260.446 560.186 263.765L530.232 283.735ZM551.709 294C553.218 294 554.215 294.037 554.802 294.079C555.088 294.1 555.16 294.113 555.07 294.1C555.018 294.093 554.885 294.073 554.687 294.033C554.495 293.995 554.175 293.925 553.764 293.807L563.654 259.193C559.682 258.058 554.841 258 551.709 258V294ZM556.163 294.319C554.501 294.082 553.397 293.607 552.982 293.412C552.535 293.201 552.409 293.087 552.637 293.246L573.281 263.754C570.754 261.984 566.563 259.439 561.255 258.681L556.163 294.319ZM553.149 293.592C551.365 292.432 550.34 291.108 549.838 290.297C549.365 289.533 549.296 289.133 549.383 289.443C549.464 289.73 549.62 290.414 549.749 291.617C549.875 292.803 549.959 294.332 549.959 296.25H585.959C585.959 290.594 585.495 284.866 584.035 279.682C582.637 274.719 579.641 267.875 572.769 263.408L553.149 293.592ZM549.959 296.25C549.959 298.417 549.872 300.184 549.733 301.595C549.592 303.023 549.414 303.925 549.287 304.412C549.153 304.93 549.15 304.699 549.518 304.054C549.904 303.378 550.839 302.012 552.637 300.754L573.281 330.246C580.075 325.49 582.854 318.38 584.131 313.463C585.504 308.177 585.959 302.25 585.959 296.25H549.959ZM552.713 300.701C554.075 299.758 554.926 299.649 554.406 299.773C553.974 299.876 552.937 300.057 551.089 300.146C547.357 300.327 541.817 300.073 534.147 299.133L529.771 334.867C538.434 335.927 546.227 336.423 552.829 336.104C558.675 335.821 566.68 334.817 573.205 330.299L552.713 300.701ZM534.277 299.15C529.178 298.488 526.039 297.434 524.262 296.527C522.637 295.699 522.522 295.202 522.658 295.443L491.26 313.057C499.287 327.365 514.829 332.926 529.641 334.85L534.277 299.15ZM522.587 295.32C520.328 291.365 517.959 282.298 517.959 265.25H481.959C481.959 283.868 484.257 300.801 491.331 313.18L522.587 295.32ZM517.959 265.25V146.25H481.959V265.25H517.959ZM667.246 200.25L652.5 210.572L680.029 249.9L685.144 202.168L667.246 200.25ZM701.496 187.75L706.916 170.586L706.916 170.585L701.496 187.75ZM707.996 193L691.685 200.612L691.888 201.047L692.114 201.471L707.996 193ZM710.246 199.75L692.308 201.245L692.381 202.113L692.536 202.97L710.246 199.75ZM710.246 304.5L692.491 301.541L692.381 302.202L692.32 302.87L710.246 304.5ZM708.246 311L724.095 319.534L724.339 319.08L724.557 318.612L708.246 311ZM672.746 314.25L661.695 328.458L662.129 328.795L662.582 329.106L672.746 314.25ZM667.496 304.25L685.377 302.187L679.932 254.991L652.737 293.946L667.496 304.25ZM596.496 297.75L583.359 310.055L596.496 297.75ZM596.496 206.25L583.442 193.857L583.438 193.861L596.496 206.25ZM652.996 189.5L645.906 206.045L645.906 206.045L652.996 189.5ZM662.746 195.25L650.018 207.978L650.321 208.281L650.638 208.569L662.746 195.25ZM628.246 267.25L615.28 279.736L615.398 279.858L615.518 279.978L628.246 267.25ZM659.246 267L646.038 254.771L645.914 254.905L645.793 255.041L659.246 267ZM659.496 237L645.587 248.425L645.707 248.571L645.829 248.714L659.496 237ZM627.746 237L614.319 225.012L614.198 225.148L614.079 225.286L627.746 237ZM685.144 202.168C685.188 201.756 685.221 202.051 684.87 202.698C684.486 203.408 683.916 204.029 683.343 204.435C682.837 204.793 682.679 204.738 683.265 204.592C683.876 204.44 685.06 204.25 686.996 204.25V168.25C678.968 168.25 670.047 169.733 662.524 175.065C654.318 180.882 650.299 189.457 649.349 198.332L685.144 202.168ZM686.996 204.25C689.819 204.25 692.008 204.36 693.644 204.529C694.452 204.613 695.059 204.704 695.491 204.785C695.932 204.868 696.107 204.924 696.076 204.914L706.916 170.585C701.029 168.726 693.929 168.25 686.996 168.25V204.25ZM696.076 204.914C695.919 204.865 695.152 204.596 694.186 203.815C693.159 202.986 692.272 201.87 691.685 200.612L724.307 185.388C720.579 177.399 713.829 172.768 706.916 170.586L696.076 204.914ZM692.114 201.471C692.25 201.727 692.343 201.922 692.403 202.058C692.462 202.195 692.484 202.259 692.482 202.255C692.481 202.25 692.452 202.163 692.416 201.998C692.381 201.833 692.336 201.579 692.308 201.245L728.184 198.255C727.748 193.028 725.924 188.365 723.878 184.529L692.114 201.471ZM692.536 202.97C692.525 202.905 692.592 203.283 692.652 204.307C692.709 205.274 692.746 206.573 692.746 208.25H728.746C728.746 204.218 728.593 200.037 727.956 196.53L692.536 202.97ZM692.746 208.25V295.75H728.746V208.25H692.746ZM692.746 295.75C692.746 299.3 692.576 301.031 692.491 301.541L728.001 307.459C728.583 303.969 728.746 299.866 728.746 295.75H692.746ZM692.32 302.87C692.347 302.573 692.384 302.368 692.406 302.266C692.427 302.164 692.437 302.142 692.417 302.206C692.373 302.349 692.24 302.735 691.935 303.388L724.557 318.612C726.209 315.072 727.748 310.797 728.172 306.13L692.32 302.87ZM692.398 302.466C693.016 301.319 693.814 300.429 694.576 299.816C695.295 299.238 695.811 299.041 695.837 299.031C695.85 299.026 695.5 299.156 694.643 299.281C693.795 299.404 692.6 299.5 690.996 299.5V335.5C701.093 335.5 716.625 333.406 724.095 319.534L692.398 302.466ZM690.996 299.5C687.122 299.5 684.486 299.26 682.839 298.966C682.04 298.824 681.676 298.704 681.635 298.69C681.575 298.669 682.101 298.84 682.91 299.394L662.582 329.106C667.171 332.245 672.329 333.661 676.528 334.409C680.964 335.199 685.87 335.5 690.996 335.5V299.5ZM683.797 300.042C684.304 300.436 684.791 301.004 685.121 301.633C685.426 302.215 685.413 302.495 685.377 302.187L649.615 306.313C650.58 314.676 654.308 322.712 661.695 328.458L683.797 300.042ZM652.737 293.946C651.038 296.381 647.343 299.5 636.496 299.5V335.5C654.65 335.5 671.621 329.786 682.255 314.554L652.737 293.946ZM636.496 299.5C628.363 299.5 619.501 295.979 609.633 285.445L583.359 310.055C598.158 325.854 615.962 335.5 636.496 335.5V299.5ZM609.633 285.445C600.283 275.463 595.996 264.561 595.996 252H559.996C559.996 274.106 568.042 293.703 583.359 310.055L609.633 285.445ZM595.996 252C595.996 239.231 600.309 228.383 609.554 218.639L583.438 193.861C568.016 210.117 559.996 229.769 559.996 252H595.996ZM609.55 218.643C619.468 208.197 628.671 204.5 637.496 204.5V168.5C616.655 168.5 598.524 177.97 583.442 193.857L609.55 218.643ZM637.496 204.5C641.009 204.5 643.726 205.111 645.906 206.045L660.087 172.955C652.933 169.889 645.317 168.5 637.496 168.5V204.5ZM645.906 206.045C647.757 206.838 649.008 207.481 649.79 207.942C650.644 208.446 650.54 208.499 650.018 207.978L675.474 182.522C671.12 178.168 665.233 175.161 660.087 172.955L645.906 206.045ZM650.638 208.569C651.689 209.524 652.243 210.205 652.5 210.572L681.992 189.928C679.916 186.961 677.47 184.309 674.854 181.931L650.638 208.569ZM603.746 252.25C603.746 263.049 608.192 272.375 615.28 279.736L641.212 254.764C639.634 253.125 639.746 252.451 639.746 252.25H603.746ZM615.518 279.978C623.251 287.711 633.089 291.75 643.996 291.75V255.75C642.57 255.75 641.908 255.456 640.974 254.522L615.518 279.978ZM643.996 291.75C655.162 291.75 665.19 287.406 672.699 278.959L645.793 255.041C645.559 255.304 645.393 255.442 645.307 255.506C645.224 255.567 645.176 255.591 645.148 255.603C645.14 255.606 644.846 255.75 643.996 255.75V291.75ZM672.454 279.229C679.206 271.937 683.496 262.797 683.496 252.25H647.496C647.496 252.369 647.619 253.063 646.038 254.771L672.454 279.229ZM683.496 252.25C683.496 241.943 679.608 232.805 673.163 225.286L645.829 248.714C647.384 250.528 647.496 251.557 647.496 252.25H683.496ZM673.405 225.575C665.769 216.279 655.165 212 643.746 212V248C644.364 248 644.776 248.054 645.022 248.102C645.261 248.149 645.363 248.194 645.373 248.199C645.382 248.202 645.38 248.202 645.373 248.198C645.367 248.194 645.364 248.192 645.368 248.195C645.37 248.196 645.447 248.254 645.587 248.425L673.405 225.575ZM643.746 212C632.346 212 622.049 216.354 614.319 225.012L641.173 248.988C641.664 248.438 641.963 248.295 642.086 248.241C642.226 248.18 642.689 248 643.746 248V212ZM614.079 225.286C607.634 232.805 603.746 241.943 603.746 252.25H639.746C639.746 251.557 639.858 250.528 641.413 248.714L614.079 225.286ZM848.289 187.75L855.548 171.278L855.526 171.269L855.504 171.259L848.289 187.75ZM859.039 216.25L875.471 223.597L877.039 220.091V216.25H859.039ZM793.539 362.75L777.107 355.403L777.026 355.583L776.95 355.765L793.539 362.75ZM790.039 370L774.604 360.739L774.249 361.332L773.939 361.95L790.039 370ZM785.789 374.75L774.989 360.35H774.989L785.789 374.75ZM765.039 373.25L757.78 389.722L757.864 389.759L757.949 389.795L765.039 373.25ZM774.289 300.5L790.59 308.134L794.632 299.502L789.765 291.307L774.289 300.5ZM724.539 216.75L740.015 207.557L739.974 207.489L739.933 207.421L724.539 216.75ZM733.039 188.5L723.913 172.985L723.888 173L723.863 173.015L733.039 188.5ZM754.039 185.5L764.024 170.523V170.523L754.039 185.5ZM758.289 189.75L742.554 198.492L743.151 199.566L743.889 200.55L758.289 189.75ZM772.039 213L756.445 221.99L756.507 222.099L756.572 222.207L772.039 213ZM795.789 252.25L780.466 261.695L801.19 295.314L812.97 257.619L795.789 252.25ZM809.289 221.5L825.655 228.995L825.668 228.966L825.681 228.937L809.289 221.5ZM822.289 192.75L806.661 183.819L806.15 184.713L805.744 185.659L822.289 192.75ZM825.289 188.5L839.345 199.745L839.468 199.591L839.588 199.434L825.289 188.5ZM841.03 204.222C842.79 204.997 844.057 205.695 844.935 206.266C845.82 206.84 846.169 207.194 846.213 207.242C846.24 207.27 845.912 206.925 845.585 206.167C845.239 205.363 845.039 204.426 845.039 203.5H881.039C881.039 185.887 866.738 176.21 855.548 171.278L841.03 204.222ZM845.039 203.5C845.039 203.655 845.023 203.728 845.018 203.752C845.012 203.776 844.997 203.836 844.939 203.95L877.139 220.05C879.73 214.868 881.039 209.276 881.039 203.5H845.039ZM844.939 203.95C844.255 205.319 843.678 206.493 843.252 207.398C843.051 207.827 842.802 208.365 842.575 208.906C842.471 209.152 842.272 209.632 842.069 210.216C841.971 210.499 841.792 211.031 841.618 211.706C841.532 212.039 841.039 213.869 841.039 216.25H877.039C877.039 217.618 876.881 218.694 876.786 219.251C876.68 219.875 876.56 220.378 876.476 220.702C876.312 221.336 876.149 221.819 876.071 222.042C875.91 222.506 875.774 222.827 875.753 222.876C875.693 223.02 875.694 223.007 875.826 222.727C876.066 222.216 876.49 221.347 877.139 220.05L844.939 203.95ZM842.607 208.903L777.107 355.403L809.971 370.097L875.471 223.597L842.607 208.903ZM776.95 355.765C775.737 358.644 774.956 360.153 774.604 360.739L805.474 379.261C807.122 376.514 808.674 373.189 810.129 369.735L776.95 355.765ZM773.939 361.95C774.33 361.169 774.725 360.672 774.937 360.435C775.143 360.205 775.202 360.19 774.989 360.35L796.589 389.15C800.096 386.52 803.704 382.92 806.139 378.05L773.939 361.95ZM774.989 360.35C775.757 359.774 776.554 359.403 777.242 359.197C777.899 359 778.293 359 778.289 359V395C784.383 395 790.888 393.426 796.589 389.15L774.989 360.35ZM778.289 359C779.077 359 778.99 359.128 777.628 358.743C776.386 358.391 774.582 357.756 772.13 356.705L757.949 389.795C764.077 392.421 771.377 395 778.289 395V359ZM772.298 356.778C770.518 355.994 769.23 355.289 768.333 354.711C767.427 354.128 767.065 353.768 767.016 353.716C766.983 353.682 767.333 354.04 767.685 354.84C768.059 355.691 768.289 356.71 768.289 357.75H732.289C732.289 375.359 746.853 384.906 757.78 389.722L772.298 356.778ZM768.289 357.75C768.289 359.616 767.925 360.693 768.096 360.029C768.178 359.709 768.384 359.008 768.797 357.816C769.616 355.451 770.951 352.021 772.889 347.397C776.747 338.195 782.625 325.143 790.59 308.134L757.988 292.866C749.953 310.024 743.831 323.597 739.689 333.478C737.627 338.396 735.962 342.622 734.781 346.028C734.194 347.722 733.65 349.434 733.232 351.056C732.903 352.336 732.289 354.884 732.289 357.75H768.289ZM789.765 291.307L740.015 207.557L709.064 225.943L758.814 309.693L789.765 291.307ZM739.933 207.421C738.555 205.148 737.81 203.631 737.454 202.76C737.284 202.344 737.279 202.257 737.327 202.451C737.368 202.618 737.539 203.35 737.539 204.5H701.539C701.539 209.201 702.91 213.392 704.124 216.365C705.435 219.578 707.19 222.852 709.146 226.079L739.933 207.421ZM737.539 204.5C737.539 207.245 736.304 208.543 736.671 208.108C736.862 207.882 737.343 207.373 738.292 206.623C739.233 205.88 740.514 204.993 742.216 203.985L723.863 173.015C714.412 178.615 701.539 188.593 701.539 204.5H737.539ZM742.165 204.015C744.43 202.683 745.999 201.952 746.957 201.591C747.416 201.418 747.6 201.38 747.544 201.393C747.495 201.403 747.049 201.5 746.289 201.5V165.5C737.966 165.5 729.958 169.429 723.913 172.985L742.165 204.015ZM746.289 201.5C747.012 201.5 745.817 201.652 744.054 200.477L764.024 170.523C758.262 166.682 751.899 165.5 746.289 165.5V201.5ZM744.054 200.477C744.257 200.612 744.15 200.567 743.874 200.29C743.592 200.009 743.072 199.424 742.554 198.492L774.024 181.008C771.353 176.201 767.509 172.847 764.024 170.523L744.054 200.477ZM743.889 200.55C743.549 200.097 743.585 200.091 744.376 201.379C744.997 202.388 745.859 203.825 746.983 205.725C749.224 209.514 752.373 214.926 756.445 221.99L787.633 204.01C783.539 196.907 780.312 191.361 777.97 187.4C775.963 184.006 773.939 180.617 772.689 178.95L743.889 200.55ZM756.572 222.207C764.946 236.276 772.911 249.44 780.466 261.695L811.112 242.805C803.667 230.727 795.798 217.724 787.506 203.793L756.572 222.207ZM812.97 257.619C812.912 257.803 813.064 257.333 813.739 255.698C814.334 254.256 815.171 252.302 816.271 249.798C818.465 244.801 821.586 237.879 825.655 228.995L792.923 214.005C788.825 222.955 785.613 230.074 783.307 235.327C781.208 240.108 779.39 244.379 778.608 246.881L812.97 257.619ZM825.681 228.937C833.768 211.113 838.235 201.238 838.834 199.841L805.744 185.659C805.752 185.642 805.737 185.678 805.683 185.8C805.634 185.911 805.568 186.06 805.482 186.252C805.311 186.636 805.077 187.158 804.778 187.822C804.182 189.148 803.344 191.005 802.263 193.396C800.101 198.177 796.98 205.065 792.897 214.063L825.681 228.937ZM837.917 201.68C837.899 201.713 837.986 201.559 838.244 201.193C838.496 200.837 838.854 200.358 839.345 199.745L811.233 177.255C809.613 179.281 807.978 181.514 806.661 183.819L837.917 201.68ZM839.588 199.434C839.059 200.125 838.142 200.979 836.85 201.589C835.6 202.179 834.618 202.25 834.289 202.25V166.25C825.334 166.25 816.847 169.907 810.991 177.566L839.588 199.434ZM834.289 202.25C834.943 202.25 837.065 202.487 841.074 204.241L855.504 171.259C848.847 168.347 841.635 166.25 834.289 166.25V202.25ZM1058.15 142.5L1042.42 133.758L1042.33 133.917L1042.24 134.078L1058.15 142.5ZM1065.4 136.5L1070.82 153.664L1070.82 153.664L1065.4 136.5ZM1088.65 136.25L1083.57 153.519L1083.7 153.557L1083.83 153.593L1088.65 136.25ZM1095.15 139.25L1083.3 152.796L1083.69 153.139L1084.1 153.458L1095.15 139.25ZM1098.4 144.5L1081.09 149.445L1081.29 150.142L1081.55 150.82L1098.4 144.5ZM1099.4 304.75L1081.69 301.53L1081.55 302.32L1081.47 303.12L1099.4 304.75ZM1097.15 311.25L1081.27 302.779L1081.22 302.872L1081.17 302.964L1097.15 311.25ZM1064.15 316.5L1057.47 333.213H1057.47L1064.15 316.5ZM1057.9 311.75L1043.5 322.55L1043.57 322.638L1043.63 322.725L1057.9 311.75ZM983.9 213.75L998.15 202.753L965.9 160.964V213.75H983.9ZM983.4 304.75L965.691 301.53L965.547 302.32L965.474 303.12L983.4 304.75ZM981.15 311.25L965.268 302.779L965.219 302.872L965.171 302.964L981.15 311.25ZM942.65 311.25L958.63 302.964L958.582 302.872L958.533 302.779L942.65 311.25ZM940.15 304.5L922.213 305.995L922.274 306.731L922.395 307.459L940.15 304.5ZM942.15 142.5L926.416 133.758L926.327 133.917L926.242 134.078L942.15 142.5ZM949.4 136.5L954.821 153.664L954.821 153.664L949.4 136.5ZM973.4 136.5L967.41 153.474L967.99 153.679L968.583 153.843L973.4 136.5ZM979.65 139.5L966.922 152.228L967.827 153.132L968.85 153.9L979.65 139.5ZM985.4 146L999.903 135.338L999.602 134.928L999.278 134.536L985.4 146ZM1055.9 240.75L1041.65 251.747L1073.9 293.536V240.75H1055.9ZM1073.89 151.242C1073.73 151.516 1073.36 152.06 1072.69 152.617C1072.01 153.182 1071.32 153.507 1070.82 153.664L1059.98 119.335C1052.26 121.772 1046.23 126.885 1042.42 133.758L1073.89 151.242ZM1070.82 153.664C1071.68 153.392 1073.64 153 1077.15 153V117C1071.33 117 1065.45 117.608 1059.98 119.336L1070.82 153.664ZM1077.15 153C1081.21 153 1083.1 153.379 1083.57 153.519L1093.73 118.981C1088.54 117.454 1082.76 117 1077.15 117V153ZM1083.83 153.593C1084.23 153.704 1084.52 153.799 1084.72 153.87C1084.93 153.942 1085.01 153.979 1084.98 153.968C1084.96 153.959 1084.79 153.88 1084.52 153.711C1084.25 153.543 1083.81 153.249 1083.3 152.796L1107 125.704C1102.64 121.887 1097.38 119.994 1093.47 118.907L1083.83 153.593ZM1084.1 153.458C1081.84 151.701 1081.18 149.763 1081.09 149.445L1115.71 139.555C1114.28 134.571 1111.46 129.132 1106.2 125.042L1084.1 153.458ZM1081.55 150.82C1081.35 150.298 1081.49 150.463 1081.65 151.791C1081.79 153.019 1081.9 154.803 1081.9 157.25H1117.9C1117.9 151.037 1117.45 144.045 1115.25 138.18L1081.55 150.82ZM1081.9 157.25V296H1117.9V157.25H1081.9ZM1081.9 296C1081.9 297.773 1081.86 299.143 1081.8 300.161C1081.74 301.246 1081.67 301.624 1081.69 301.53L1117.11 307.97C1117.75 304.437 1117.9 300.144 1117.9 296H1081.9ZM1081.47 303.12C1081.51 302.689 1081.58 302.366 1081.62 302.167C1081.67 301.967 1081.7 301.863 1081.7 301.862C1081.7 301.861 1081.68 301.938 1081.6 302.1C1081.53 302.26 1081.42 302.486 1081.27 302.779L1113.03 319.721C1114.95 316.125 1116.86 311.543 1117.33 306.38L1081.47 303.12ZM1081.17 302.964C1081.92 301.517 1082.89 300.509 1083.69 299.901C1084.42 299.34 1084.86 299.225 1084.64 299.303C1084.41 299.38 1083.76 299.569 1082.53 299.731C1081.31 299.89 1079.71 300 1077.65 300V336C1084.01 336 1090.53 335.361 1096.41 333.322C1102.44 331.237 1109.18 327.158 1113.13 319.536L1081.17 302.964ZM1077.65 300C1074.81 300 1072.76 299.888 1071.39 299.735C1070.71 299.66 1070.33 299.589 1070.17 299.556C1069.99 299.517 1070.27 299.56 1070.84 299.787L1057.47 333.213C1063.52 335.636 1071.21 336 1077.65 336V300ZM1070.84 299.787C1071.04 299.871 1071.32 300.016 1071.6 300.232C1071.89 300.446 1072.07 300.652 1072.17 300.775L1043.63 322.725C1047.24 327.408 1051.92 330.995 1057.47 333.213L1070.84 299.787ZM1072.3 300.95C1034.82 250.972 1010.07 218.202 998.15 202.753L969.65 224.747C981.394 239.964 1005.98 272.528 1043.5 322.55L1072.3 300.95ZM965.9 213.75V296H1001.9V213.75H965.9ZM965.9 296C965.9 297.773 965.863 299.143 965.805 300.161C965.743 301.246 965.674 301.624 965.691 301.53L1001.11 307.97C1001.75 304.437 1001.9 300.144 1001.9 296H965.9ZM965.474 303.12C965.514 302.689 965.575 302.366 965.621 302.167C965.667 301.967 965.703 301.863 965.703 301.862C965.704 301.861 965.677 301.938 965.605 302.1C965.533 302.26 965.424 302.486 965.268 302.779L997.033 319.721C998.95 316.125 1000.86 311.543 1001.33 306.38L965.474 303.12ZM965.171 302.964C965.921 301.517 966.894 300.509 967.69 299.901C968.424 299.34 968.862 299.225 968.637 299.303C968.414 299.38 967.762 299.569 966.53 299.731C965.313 299.89 963.707 300 961.65 300V336C968.009 336 974.525 335.361 980.413 333.322C986.436 331.237 993.178 327.158 997.13 319.536L965.171 302.964ZM961.65 300C959.698 300 958.188 299.892 957.059 299.74C955.915 299.586 955.338 299.409 955.176 299.351C955.017 299.295 955.478 299.432 956.211 300.002C957.001 300.617 957.922 301.599 958.63 302.964L926.671 319.536C930.546 327.009 937.096 331.132 943.125 333.274C948.974 335.352 955.413 336 961.65 336V300ZM958.533 302.779C958.182 302.122 957.995 301.678 957.905 301.436C957.814 301.19 957.855 301.236 957.905 301.541L922.395 307.459C923.149 311.983 924.852 316.128 926.768 319.721L958.533 302.779ZM958.088 303.005C957.985 301.765 957.9 299.446 957.9 295.75H921.9C921.9 299.721 921.983 303.235 922.213 305.995L958.088 303.005ZM957.9 295.75V156.25H921.9V295.75H957.9ZM957.9 156.25C957.9 153.733 958.054 152.026 958.227 150.969C958.415 149.819 958.532 150.027 958.059 150.922L926.242 134.078C922.583 140.99 921.9 149.316 921.9 156.25H957.9ZM957.885 151.242C957.733 151.516 957.362 152.06 956.689 152.617C956.007 153.182 955.318 153.507 954.821 153.664L943.98 119.336C936.265 121.772 930.234 126.885 926.416 133.758L957.885 151.242ZM954.821 153.664C955.587 153.423 957.658 153 961.65 153V117C955.643 117 949.548 117.577 943.98 119.336L954.821 153.664ZM961.65 153C963.578 153 965.024 153.098 966.059 153.23C967.122 153.366 967.502 153.506 967.41 153.474L979.391 119.526C973.776 117.544 967.523 117 961.65 117V153ZM968.583 153.843C969.388 154.067 969.601 154.188 969.424 154.102C969.318 154.052 969.028 153.906 968.619 153.633C968.213 153.363 967.605 152.911 966.922 152.228L992.378 126.772C987.82 122.214 981.987 120.204 978.218 119.157L968.583 153.843ZM968.85 153.9C968.194 153.408 967.763 153.005 967.657 152.906C967.502 152.761 967.428 152.682 967.456 152.712C967.517 152.774 967.72 152.99 968.106 153.426C968.868 154.288 969.992 155.61 971.523 157.464L999.278 134.536C997.643 132.557 996.224 130.879 995.07 129.574C994.45 128.873 992.545 126.671 990.45 125.1L968.85 153.9ZM970.898 156.662C1006.04 204.464 1029.67 236.219 1041.65 251.747L1070.15 229.753C1058.47 214.614 1035.09 183.202 999.903 135.338L970.898 156.662ZM1073.9 240.75V156.25H1037.9V240.75H1073.9ZM1073.9 156.25C1073.9 153.733 1074.05 152.026 1074.23 150.969C1074.41 149.819 1074.53 150.027 1074.06 150.922L1042.24 134.078C1038.58 140.99 1037.9 149.316 1037.9 156.25H1073.9ZM1137.08 202.75L1149.33 215.94L1137.08 202.75ZM1232.83 202.75L1220.51 215.867L1220.55 215.907L1220.59 215.946L1232.83 202.75ZM1242.83 289L1257.77 299.038L1257.81 298.985L1257.84 298.931L1242.83 289ZM1216.58 312.75L1224.53 328.902L1224.58 328.876L1224.63 328.85L1216.58 312.75ZM1152.83 312.25L1144.37 328.139L1144.48 328.193L1144.58 328.245L1152.83 312.25ZM1126.58 288.25L1111.53 298.126L1111.62 298.262L1111.71 298.397L1126.58 288.25ZM1168.33 270.25L1157.25 284.434L1157.39 284.544L1157.53 284.65L1168.33 270.25ZM1201.08 270L1190.21 255.652L1201.08 270ZM1201.58 233.25L1190.56 247.483V247.483L1201.58 233.25ZM1168.08 233.5L1156.78 219.489L1168.08 233.5ZM1134.08 252.25C1134.08 236.991 1139.19 225.359 1149.33 215.94L1124.83 189.56C1106.98 206.141 1098.08 227.509 1098.08 252.25H1134.08ZM1149.33 215.94C1160.22 205.824 1171.92 201.25 1185.08 201.25V165.25C1162.24 165.25 1141.94 173.676 1124.83 189.56L1149.33 215.94ZM1185.08 201.25C1198.23 201.25 1209.81 205.815 1220.51 215.867L1245.16 189.633C1228.19 173.685 1207.93 165.25 1185.08 165.25V201.25ZM1220.59 215.946C1230.51 225.15 1235.58 236.671 1235.58 252H1271.58C1271.58 227.329 1262.82 206.016 1245.07 189.554L1220.59 215.946ZM1235.58 252C1235.58 262.542 1232.91 271.376 1227.82 279.069L1257.84 298.931C1267.09 284.958 1271.58 269.124 1271.58 252H1235.58ZM1227.89 278.962C1222.26 287.343 1215.78 293.026 1208.53 296.65L1224.63 328.85C1238.05 322.14 1249.07 311.991 1257.77 299.038L1227.89 278.962ZM1208.64 296.598C1200.87 300.42 1192.99 302.25 1184.83 302.25V338.25C1198.67 338.25 1211.96 335.08 1224.53 328.902L1208.64 296.598ZM1184.83 302.25C1176.87 302.25 1169.02 300.348 1161.09 296.255L1144.58 328.245C1157.31 334.818 1170.8 338.25 1184.83 338.25V302.25ZM1161.29 296.361C1153.74 292.344 1147.12 286.41 1141.45 278.103L1111.71 298.397C1120.38 311.09 1131.26 321.156 1144.37 328.139L1161.29 296.361ZM1141.63 278.374C1136.65 270.778 1134.08 262.241 1134.08 252.25H1098.08C1098.08 268.926 1102.52 284.389 1111.53 298.126L1141.63 278.374ZM1157.53 284.65C1165.3 290.479 1174.42 294.25 1184.58 294.25V258.25C1183.75 258.25 1182.03 258.021 1179.13 255.85L1157.53 284.65ZM1184.58 294.25C1194.91 294.25 1204.13 290.272 1211.95 284.348L1190.21 255.652C1187.03 258.062 1185.25 258.25 1184.58 258.25V294.25ZM1211.95 284.348C1222.8 276.131 1227.33 264.136 1227.33 251.5H1191.33C1191.33 253.576 1190.98 254.574 1190.83 254.919C1190.72 255.169 1190.6 255.359 1190.21 255.652L1211.95 284.348ZM1227.33 251.5C1227.33 239.299 1223.26 227.267 1212.6 219.017L1190.56 247.483C1190.68 247.575 1190.72 247.607 1190.83 247.848C1190.98 248.207 1191.33 249.281 1191.33 251.5H1227.33ZM1212.6 219.017C1204.58 212.806 1195.18 209.25 1184.83 209.25V245.25C1186.48 245.25 1188.25 245.694 1190.56 247.483L1212.6 219.017ZM1184.83 209.25C1174.28 209.25 1164.79 213.032 1156.78 219.489L1179.38 247.511C1181.71 245.634 1183.39 245.25 1184.83 245.25V209.25ZM1156.78 219.489C1146.41 227.854 1142.33 239.77 1142.33 252H1178.33C1178.33 249.79 1178.68 248.656 1178.87 248.205C1179.02 247.856 1179.14 247.705 1179.38 247.511L1156.78 219.489ZM1142.33 252C1142.33 264.41 1146.73 276.216 1157.25 284.434L1179.41 256.066C1179.05 255.782 1178.93 255.593 1178.82 255.336C1178.67 254.989 1178.33 254.011 1178.33 252H1142.33ZM1433.35 187.25L1425.61 203.501L1425.87 203.625L1426.14 203.741L1433.35 187.25ZM1445.35 218.25L1461.87 225.394L1461.91 225.315L1461.94 225.235L1445.35 218.25ZM1438.6 234.5L1455.25 241.335L1455.31 241.209L1455.36 241.082L1438.6 234.5ZM1411.1 301.5L1394.45 294.665L1394.24 295.173L1394.06 295.692L1411.1 301.5ZM1398.6 317L1406.21 333.311L1406.53 333.165L1406.83 333.007L1398.6 317ZM1377.85 314.5L1366.14 328.167L1366.48 328.464L1366.85 328.743L1377.85 314.5ZM1370.85 305.5L1387.63 298.976L1387.4 298.397L1387.14 297.836L1370.85 305.5ZM1368.85 301.25L1352.14 307.935L1352.34 308.431L1352.56 308.914L1368.85 301.25ZM1354.1 262.25L1370.96 255.93L1354.98 213.335L1337.49 255.327L1354.1 262.25ZM1346.6 282L1329.69 275.849L1329.65 275.937L1329.62 276.026L1346.6 282ZM1340.35 299L1323.81 291.909L1323.67 292.221L1323.55 292.538L1340.35 299ZM1338.6 303.5L1321.89 296.815L1321.44 297.949L1321.14 299.134L1338.6 303.5ZM1336.6 307.5L1321.05 298.43V298.43L1336.6 307.5ZM1332.6 312.75L1345.33 325.478L1332.6 312.75ZM1305.85 314.5L1294.14 328.167L1294.33 328.331L1294.53 328.49L1305.85 314.5ZM1298.85 305.5L1315.63 298.976L1315.57 298.821L1315.5 298.667L1298.85 305.5ZM1261.1 213.5L1244.03 219.192L1244.22 219.77L1244.45 220.333L1261.1 213.5ZM1272.85 188L1279.59 204.692L1279.61 204.684L1279.63 204.676L1272.85 188ZM1293.85 187L1283.05 201.4L1283.71 201.896L1284.42 202.33L1293.85 187ZM1298.35 191.25L1282.62 199.992L1282.84 200.397L1283.09 200.79L1298.35 191.25ZM1300.35 195.5L1283.28 201.192L1283.5 201.877L1283.79 202.541L1300.35 195.5ZM1318.1 242.5L1301.19 248.67L1318.12 295.057L1335.01 248.66L1318.1 242.5ZM1332.85 202L1349.76 208.16L1349.94 207.671L1350.09 207.172L1332.85 202ZM1338.35 193.25L1350.66 206.382L1350.87 206.183L1351.08 205.978L1338.35 193.25ZM1365.85 190L1354.94 204.318L1355.1 204.439L1355.26 204.557L1365.85 190ZM1373.35 198L1389.64 190.336L1389.55 190.142L1389.45 189.95L1373.35 198ZM1375.35 202.25L1392.3 196.196L1392.01 195.375L1391.64 194.586L1375.35 202.25ZM1390.1 242.25L1373.69 249.637L1391.79 289.855L1407 248.459L1390.1 242.25ZM1405.35 200.75L1388.5 194.43L1388.48 194.486L1388.46 194.541L1405.35 200.75ZM1426.14 203.741C1428.09 204.594 1429.52 205.377 1430.53 206.038C1431.55 206.702 1432.01 207.153 1432.15 207.303C1432.28 207.433 1432.04 207.212 1431.78 206.602C1431.5 205.953 1431.35 205.205 1431.35 204.5H1467.35C1467.35 186.324 1452.81 176.114 1440.57 170.759L1426.14 203.741ZM1431.35 204.5C1431.35 203.858 1431.42 203.572 1431.39 203.768C1431.36 203.936 1431.27 204.344 1431.07 205.035C1430.66 206.442 1429.93 208.485 1428.76 211.265L1461.94 225.235C1464.58 218.973 1467.35 211.357 1467.35 204.5H1431.35ZM1428.83 211.106C1426.11 217.4 1423.78 223.012 1421.85 227.918L1455.36 241.082C1457.09 236.655 1459.26 231.433 1461.87 225.394L1428.83 211.106ZM1421.95 227.665L1394.45 294.665L1427.75 308.335L1455.25 241.335L1421.95 227.665ZM1394.06 295.692C1392.78 299.469 1391.32 300.504 1390.37 300.993L1406.83 333.007C1417.55 327.496 1424.43 318.198 1428.14 307.308L1394.06 295.692ZM1390.99 300.689C1391.33 300.528 1391.41 300.551 1391.09 300.61C1390.76 300.671 1390.12 300.75 1389.1 300.75V336.75C1394.6 336.75 1400.59 335.935 1406.21 333.311L1390.99 300.689ZM1389.1 300.75C1389.26 300.75 1389.41 300.765 1389.55 300.79C1389.68 300.815 1389.76 300.843 1389.78 300.849C1389.81 300.86 1389.49 300.749 1388.86 300.257L1366.85 328.743C1372.99 333.488 1380.51 336.75 1389.1 336.75V300.75ZM1389.57 300.833C1388.55 299.96 1387.97 299.32 1387.68 298.949C1387.4 298.584 1387.48 298.588 1387.63 298.976L1354.08 312.024C1356.68 318.72 1361.3 324.019 1366.14 328.167L1389.57 300.833ZM1387.14 297.836L1385.14 293.586L1352.56 308.914L1354.56 313.164L1387.14 297.836ZM1385.56 294.565C1384.32 291.466 1379.5 278.723 1370.96 255.93L1337.25 268.57C1345.7 291.111 1350.71 304.368 1352.14 307.935L1385.56 294.565ZM1337.49 255.327C1335.65 259.74 1333.03 266.661 1329.69 275.849L1363.52 288.151C1366.84 279.006 1369.22 272.76 1370.72 269.173L1337.49 255.327ZM1329.62 276.026C1326.39 285.213 1324.52 290.246 1323.81 291.909L1356.9 306.091C1358.18 303.088 1360.48 296.787 1363.58 287.974L1329.62 276.026ZM1323.55 292.538C1322.72 294.711 1322.17 296.107 1321.89 296.815L1355.31 310.185C1355.7 309.226 1356.32 307.622 1357.15 305.462L1323.55 292.538ZM1321.14 299.134C1321.28 298.559 1321.43 298.112 1321.53 297.835C1321.63 297.546 1321.71 297.33 1321.77 297.202C1321.82 297.07 1321.86 296.984 1321.88 296.951C1321.89 296.917 1321.89 296.915 1321.88 296.95C1321.84 297.025 1321.76 297.187 1321.61 297.45C1321.47 297.71 1321.28 298.034 1321.05 298.43L1352.15 316.57C1352.83 315.396 1353.5 314.196 1354.08 313.05C1354.48 312.244 1355.47 310.246 1356.06 307.866L1321.14 299.134ZM1321.05 298.43C1320.6 299.216 1320.19 299.71 1319.87 300.022L1345.33 325.478C1348.02 322.79 1350.27 319.784 1352.15 316.57L1321.05 298.43ZM1319.87 300.022C1319.56 300.337 1319.32 300.521 1319.18 300.622C1319.04 300.721 1318.97 300.751 1318.97 300.752C1318.96 300.752 1318.98 300.746 1319 300.742C1319.02 300.739 1318.97 300.75 1318.85 300.75V336.75C1329.27 336.75 1338.31 332.501 1345.33 325.478L1319.87 300.022ZM1318.85 300.75C1317.92 300.75 1317.46 300.624 1317.32 300.579C1317.21 300.543 1317.2 300.529 1317.18 300.51L1294.53 328.49C1301.69 334.294 1310.2 336.75 1318.85 336.75V300.75ZM1317.57 300.833C1316.55 299.96 1315.97 299.32 1315.68 298.949C1315.4 298.584 1315.48 298.588 1315.63 298.976L1282.08 312.024C1284.68 318.72 1289.3 324.019 1294.14 328.167L1317.57 300.833ZM1315.5 298.667L1277.75 206.667L1244.45 220.333L1282.2 312.333L1315.5 298.667ZM1278.18 207.808C1277.41 205.512 1276.93 203.893 1276.66 202.842C1276.53 202.319 1276.49 202.092 1276.49 202.093C1276.49 202.101 1276.51 202.235 1276.54 202.47C1276.56 202.69 1276.6 203.138 1276.6 203.75H1240.6C1240.6 206.95 1241.34 210.041 1241.79 211.783C1242.35 213.982 1243.12 216.488 1244.03 219.192L1278.18 207.808ZM1276.6 203.75C1276.6 204.275 1276.5 204.966 1276.21 205.68C1275.94 206.377 1275.61 206.777 1275.51 206.889C1275.43 206.974 1275.62 206.751 1276.29 206.319C1276.97 205.887 1278.03 205.321 1279.59 204.692L1266.12 171.308C1254 176.195 1240.6 186.082 1240.6 203.75H1276.6ZM1279.63 204.676C1281.72 203.826 1283.32 203.313 1284.47 203.025C1285.66 202.728 1286.06 202.75 1285.85 202.75V166.75C1279.09 166.75 1272.23 168.825 1266.08 171.324L1279.63 204.676ZM1285.85 202.75C1286.58 202.75 1285.06 202.907 1283.05 201.4L1304.65 172.6C1298.64 168.093 1291.79 166.75 1285.85 166.75V202.75ZM1284.42 202.33C1284.68 202.494 1284.57 202.455 1284.24 202.149C1283.91 201.838 1283.26 201.142 1282.62 199.992L1314.09 182.508C1311.2 177.313 1306.9 173.898 1303.29 171.67L1284.42 202.33ZM1283.09 200.79C1283.16 200.91 1283.22 201.034 1283.28 201.192L1317.43 189.808C1316.48 186.966 1315.21 184.257 1313.62 181.71L1283.09 200.79ZM1283.79 202.541C1286.4 208.686 1292.14 223.869 1301.19 248.67L1335.01 236.33C1326.06 211.798 1319.97 195.647 1316.92 188.459L1283.79 202.541ZM1335.01 248.66L1349.76 208.16L1315.94 195.84L1301.19 236.34L1335.01 248.66ZM1350.09 207.172C1350.13 207.036 1350.19 206.824 1350.66 206.382L1326.04 180.118C1321.18 184.676 1317.57 190.297 1315.61 196.828L1350.09 207.172ZM1351.08 205.978C1352.43 204.627 1353.3 204.118 1353.6 203.967C1353.83 203.855 1353.61 204 1353.1 204V168C1341.79 168 1332.56 173.582 1325.62 180.522L1351.08 205.978ZM1353.1 204C1353.99 204 1354.47 204.117 1354.65 204.175C1354.81 204.224 1354.87 204.265 1354.94 204.318L1376.76 175.682C1369.71 170.307 1361.48 168 1353.1 168V204ZM1355.26 204.557C1356.39 205.375 1357.03 205.974 1357.34 206.311C1357.66 206.65 1357.52 206.578 1357.25 206.05L1389.45 189.95C1386.33 183.707 1381.33 178.999 1376.44 175.443L1355.26 204.557ZM1357.06 205.664L1359.06 209.914L1391.64 194.586L1389.64 190.336L1357.06 205.664ZM1358.4 208.304C1366.57 231.169 1371.81 245.458 1373.69 249.637L1406.52 234.863C1405.4 232.375 1400.8 219.998 1392.3 196.196L1358.4 208.304ZM1407 248.459L1422.25 206.959L1388.46 194.541L1373.21 236.041L1407 248.459ZM1422.21 207.07C1423.58 203.399 1424.72 202.283 1424.81 202.203C1424.82 202.199 1424.76 202.252 1424.63 202.33C1424.5 202.409 1424.33 202.495 1424.13 202.571C1423.7 202.735 1423.39 202.75 1423.35 202.75V166.75C1414.93 166.75 1407.18 169.712 1400.89 175.297C1394.98 180.551 1391.12 187.434 1388.5 194.43L1422.21 207.07ZM1423.35 202.75C1423.35 202.75 1423.39 202.75 1423.47 202.76C1423.55 202.77 1423.68 202.792 1423.86 202.838C1424.23 202.93 1424.81 203.119 1425.61 203.501L1441.09 170.999C1435.7 168.434 1429.73 166.75 1423.35 166.75V202.75ZM1465.59 280L1481.52 288.383L1481.61 288.218L1481.69 288.05L1465.59 280ZM1473.09 273.25L1467.4 256.174L1467.27 256.216L1467.15 256.261L1473.09 273.25ZM1504.84 276.25L1492.12 288.978L1492.28 289.141L1492.45 289.3L1504.84 276.25ZM1509.34 304.25L1491.59 301.291L1491.48 301.952L1491.42 302.62L1509.34 304.25ZM1507.09 311L1522.85 319.695L1523.03 319.376L1523.19 319.05L1507.09 311ZM1467.84 313.5L1454.79 325.897L1455.11 326.232L1455.45 326.55L1467.84 313.5ZM1499.09 250.75L1494.51 233.343L1499.09 250.75ZM1473.59 250.75L1478.17 233.343L1473.59 250.75ZM1466.84 246.25L1451 254.784L1451.24 255.241L1451.51 255.684L1466.84 246.25ZM1464.59 240.5L1446.68 242.291L1446.77 243.167L1446.94 244.03L1464.59 240.5ZM1464.59 145.75L1446.88 142.53L1446.75 143.24L1446.68 143.959L1464.59 145.75ZM1467.09 139.75L1451.76 130.316V130.316L1467.09 139.75ZM1473.84 135.25L1478.42 152.657L1478.85 152.546L1479.26 152.414L1473.84 135.25ZM1499.34 135.25L1493.92 152.414L1494.34 152.546L1494.76 152.657L1499.34 135.25ZM1505.84 140L1489.74 148.05L1490.1 148.759L1490.51 149.434L1505.84 140ZM1508.09 146L1490.17 147.63L1490.25 148.587L1490.44 149.53L1508.09 146ZM1508.09 240.75L1490.44 237.22L1490.27 238.083L1490.18 238.959L1508.09 240.75ZM1505.84 246.5L1520.82 256.485L1521 256.212L1521.17 255.934L1505.84 246.5ZM1481.69 288.05C1481.63 288.18 1481.36 288.655 1480.76 289.192C1480.15 289.741 1479.51 290.075 1479.04 290.239L1467.15 256.261C1459.13 259.066 1453.13 264.686 1449.49 271.95L1481.69 288.05ZM1478.79 290.326C1479.44 290.107 1482.4 289.5 1489.09 289.5V253.5C1481.46 253.5 1473.74 254.06 1467.4 256.174L1478.79 290.326ZM1489.09 289.5C1491.55 289.5 1492.85 289.776 1493.33 289.921C1493.75 290.045 1493.05 289.916 1492.12 288.978L1517.57 263.522C1509.42 255.37 1498.3 253.5 1489.09 253.5V289.5ZM1492.45 289.3C1492.09 288.965 1491.84 288.632 1491.68 288.368C1491.52 288.112 1491.49 287.985 1491.52 288.067C1491.59 288.28 1491.84 289.226 1491.84 291.25H1527.84C1527.84 281.881 1525.58 271.123 1517.24 263.2L1492.45 289.3ZM1491.84 291.25V295.25H1527.84V291.25H1491.84ZM1491.84 295.25C1491.84 299.017 1491.67 300.807 1491.59 301.291L1527.1 307.209C1527.68 303.693 1527.84 299.483 1527.84 295.25H1491.84ZM1491.42 302.62C1491.46 302.204 1491.51 301.911 1491.55 301.76C1491.58 301.608 1491.6 301.558 1491.58 301.62C1491.56 301.681 1491.51 301.824 1491.41 302.055C1491.31 302.286 1491.18 302.583 1490.99 302.95L1523.19 319.05C1524.99 315.465 1526.81 310.904 1527.27 305.88L1491.42 302.62ZM1491.33 302.305C1491.87 301.334 1492.55 300.594 1493.16 300.104C1493.74 299.645 1494.09 299.536 1493.94 299.593C1493.78 299.653 1493.23 299.83 1492.17 299.985C1491.11 300.139 1489.69 300.25 1487.84 300.25V336.25C1499.06 336.25 1515.04 333.855 1522.85 319.695L1491.33 302.305ZM1487.84 300.25C1483.67 300.25 1481.01 299.907 1479.5 299.55C1477.85 299.158 1478.74 299.027 1480.24 300.45L1455.45 326.55C1460.28 331.14 1466.17 333.384 1471.18 334.575C1476.35 335.801 1482.02 336.25 1487.84 336.25V300.25ZM1480.89 301.103C1482.16 302.437 1482.08 303.232 1481.74 301.884C1481.43 300.611 1481.09 298.268 1481.09 294.5H1445.09C1445.09 304.384 1446.46 317.125 1454.79 325.897L1480.89 301.103ZM1481.09 294.5C1481.09 291.967 1481.26 290.201 1481.46 289.058C1481.66 287.862 1481.83 287.808 1481.52 288.383L1449.67 271.617C1445.93 278.705 1445.09 287.101 1445.09 294.5H1481.09ZM1494.51 233.343C1493.48 233.615 1490.97 234 1486.34 234V270C1492.39 270 1498.38 269.552 1503.67 268.157L1494.51 233.343ZM1486.34 234C1481.72 234 1479.21 233.615 1478.17 233.343L1469.01 268.157C1474.31 269.552 1480.3 270 1486.34 270V234ZM1478.17 233.343C1478.12 233.329 1478.68 233.465 1479.52 234.023C1480.41 234.621 1481.39 235.55 1482.17 236.816L1451.51 255.684C1455.91 262.827 1462.71 266.498 1469.01 268.157L1478.17 233.343ZM1482.69 237.716C1482.39 237.153 1482.23 236.795 1482.17 236.628C1482.1 236.454 1482.17 236.581 1482.24 236.97L1446.94 244.03C1447.74 248.035 1449.33 251.685 1451 254.784L1482.69 237.716ZM1482.5 238.709C1482.43 237.984 1482.34 236.149 1482.34 232.75H1446.34C1446.34 236.351 1446.42 239.683 1446.68 242.291L1482.5 238.709ZM1482.34 232.75V153.5H1446.34V232.75H1482.34ZM1482.34 153.5C1482.34 150.101 1482.43 148.266 1482.5 147.541L1446.68 143.959C1446.42 146.567 1446.34 149.899 1446.34 153.5H1482.34ZM1482.3 148.97C1482.25 149.243 1482.2 149.449 1482.16 149.585C1482.12 149.72 1482.09 149.792 1482.08 149.798C1482.08 149.804 1482.1 149.755 1482.16 149.648C1482.21 149.541 1482.3 149.387 1482.42 149.184L1451.76 130.316C1449.66 133.738 1447.73 137.852 1446.88 142.53L1482.3 148.97ZM1482.42 149.184C1481.64 150.45 1480.66 151.379 1479.77 151.977C1478.93 152.535 1478.37 152.671 1478.42 152.657L1469.26 117.843C1462.96 119.502 1456.16 123.173 1451.76 130.316L1482.42 149.184ZM1479.26 152.414C1479.94 152.2 1482.13 151.75 1486.59 151.75V115.75C1480.39 115.75 1474.08 116.3 1468.42 118.086L1479.26 152.414ZM1486.59 151.75C1491.06 151.75 1493.24 152.2 1493.92 152.414L1504.76 118.086C1499.11 116.3 1492.79 115.75 1486.59 115.75V151.75ZM1494.76 152.657C1494.64 152.624 1493.81 152.388 1492.72 151.596C1491.56 150.744 1490.48 149.525 1489.74 148.05L1521.94 131.95C1517.89 123.85 1510.72 119.631 1503.92 117.843L1494.76 152.657ZM1490.51 149.434C1490.68 149.711 1490.65 149.712 1490.55 149.445C1490.45 149.172 1490.25 148.55 1490.17 147.63L1526.02 144.37C1525.52 138.921 1523.44 134.246 1521.17 130.566L1490.51 149.434ZM1490.44 149.53C1490.4 149.289 1490.45 149.486 1490.51 150.346C1490.56 151.145 1490.59 152.262 1490.59 153.75H1526.59C1526.59 150.034 1526.44 145.969 1525.74 142.47L1490.44 149.53ZM1490.59 153.75V233H1526.59V153.75H1490.59ZM1490.59 233C1490.59 234.488 1490.56 235.605 1490.51 236.404C1490.45 237.264 1490.4 237.461 1490.44 237.22L1525.74 244.28C1526.44 240.781 1526.59 236.716 1526.59 233H1490.59ZM1490.18 238.959C1490.3 237.835 1490.55 237.115 1490.64 236.878C1490.74 236.637 1490.74 236.692 1490.51 237.066L1521.17 255.934C1523.26 252.542 1525.46 247.958 1526 242.541L1490.18 238.959ZM1490.87 236.515C1492.74 233.707 1494.98 233.221 1494.51 233.343L1503.67 268.157C1509.54 266.613 1516.28 263.293 1520.82 256.485L1490.87 236.515Z" fill="black" mask="url(#path-2-outside-1_534_133)"/>
</g>
<g filter="url(#filter1_d_534_133)">
<path d="M251.735 139.716L223.326 113.625L255.684 101.461L251.735 139.716Z" fill="white"/>
<path d="M185.202 109.735L211.292 81.3258L223.456 113.685L185.202 109.735Z" fill="white"/>
<path d="M215.183 43.2018L243.592 69.2919L211.233 81.4559L215.183 43.2018Z" fill="white"/>
<path d="M281.716 73.1826L255.625 101.592L243.461 69.2329L281.716 73.1826Z" fill="white"/>
<rect x="223.326" y="113.625" width="34.3674" height="34.5695" transform="rotate(-110.602 223.326 113.625)" fill="white"/>
</g>
<g filter="url(#filter2_d_534_133)">
<path d="M1761.14 152.246L1741.59 118.996L1776.09 116.814L1761.14 152.246Z" fill="white"/>
<path d="M1706.26 104.14L1739.52 84.5899L1741.7 119.091L1706.26 104.14Z" fill="white"/>
<path d="M1754.37 49.265L1773.92 82.5153L1739.42 84.6972L1754.37 49.265Z" fill="white"/>
<path d="M1809.25 97.3717L1776 116.921L1773.81 82.4207L1809.25 97.3717Z" fill="white"/>
<rect x="1741.59" y="118.996" width="34.3674" height="34.5695" transform="rotate(-93.6187 1741.59 118.996)" fill="white"/>
</g>
<g filter="url(#filter3_d_534_133)">
<path d="M1613.13 393.213L1607.37 355.073L1640.2 365.902L1613.13 393.213Z" fill="white"/>
<path d="M1580.12 328.126L1618.26 322.371L1607.44 355.201L1580.12 328.126Z" fill="white"/>
<path d="M1645.21 295.124L1650.97 333.264L1618.14 322.435L1645.21 295.124Z" fill="white"/>
<path d="M1678.21 360.211L1640.07 365.966L1650.9 333.136L1678.21 360.211Z" fill="white"/>
<rect x="1607.37" y="355.073" width="34.3674" height="34.5695" transform="rotate(-71.7455 1607.37 355.073)" fill="white"/>
</g>
<g filter="url(#filter4_d_534_133)">
<path d="M156.178 386.487L118.992 376.239L142.232 350.647L156.178 386.487Z" fill="white"/>
<path d="M83.2954 390.178L93.5431 352.992L119.135 376.232L83.2954 390.178Z" fill="white"/>
<path d="M79.6044 317.295L116.79 327.543L93.5499 353.135L79.6044 317.295Z" fill="white"/>
<path d="M152.487 313.604L142.239 350.79L116.647 327.55L152.487 313.604Z" fill="white"/>
<rect x="118.992" y="376.239" width="34.3674" height="34.5695" transform="rotate(-137.758 118.992 376.239)" fill="white"/>
</g>
<defs>
<filter id="filter0_d_534_133" x="342" y="124.25" width="1177.84" height="267.75" filterUnits="userSpaceOnUse" color-interpolation-filters="sRGB">
<feFlood flood-opacity="0" result="BackgroundImageFix"/>
<feColorMatrix in="SourceAlpha" type="matrix" values="0 0 0 0 0 0 0 0 0 0 0 0 0 0 0 0 0 0 127 0" result="hardAlpha"/>
<feOffset dx="10" dy="15"/>
<feComposite in2="hardAlpha" operator="out"/>
<feColorMatrix type="matrix" values="0 0 0 0 0 0 0 0 0 0 0 0 0 0 0 0 0 0 1 0"/>
<feBlend mode="normal" in2="BackgroundImageFix" result="effect1_dropShadow_534_133"/>
<feBlend mode="normal" in="SourceGraphic" in2="effect1_dropShadow_534_133" result="shape"/>
</filter>
<filter id="filter1_d_534_133" x="139.4" y="-2.6" width="188.117" height="188.117" filterUnits="userSpaceOnUse" color-interpolation-filters="sRGB">
<feFlood flood-opacity="0" result="BackgroundImageFix"/>
<feColorMatrix in="SourceAlpha" type="matrix" values="0 0 0 0 0 0 0 0 0 0 0 0 0 0 0 0 0 0 127 0" result="hardAlpha"/>
<feOffset/>
<feGaussianBlur stdDeviation="13.8"/>
<feComposite in2="hardAlpha" operator="out"/>
<feColorMatrix type="matrix" values="0 0 0 0 1 0 0 0 0 1 0 0 0 0 1 0 0 0 1 0"/>
<feBlend mode="normal" in2="BackgroundImageFix" result="effect1_dropShadow_534_133"/>
<feBlend mode="normal" in="SourceGraphic" in2="effect1_dropShadow_534_133" result="shape"/>
</filter>
<filter id="filter2_d_534_133" x="1675.4" y="18.4" width="164.711" height="164.711" filterUnits="userSpaceOnUse" color-interpolation-filters="sRGB">
<feFlood flood-opacity="0" result="BackgroundImageFix"/>
<feColorMatrix in="SourceAlpha" type="matrix" values="0 0 0 0 0 0 0 0 0 0 0 0 0 0 0 0 0 0 127 0" result="hardAlpha"/>
<feOffset/>
<feGaussianBlur stdDeviation="13.8"/>
<feComposite in2="hardAlpha" operator="out"/>
<feColorMatrix type="matrix" values="0 0 0 0 1 0 0 0 0 1 0 0 0 0 1 0 0 0 1 0"/>
<feBlend mode="normal" in2="BackgroundImageFix" result="effect1_dropShadow_534_133"/>
<feBlend mode="normal" in="SourceGraphic" in2="effect1_dropShadow_534_133" result="shape"/>
</filter>
<filter id="filter3_d_534_133" x="1536.4" y="251.4" width="185.537" height="185.537" filterUnits="userSpaceOnUse" color-interpolation-filters="sRGB">
<feFlood flood-opacity="0" result="BackgroundImageFix"/>
<feColorMatrix in="SourceAlpha" type="matrix" values="0 0 0 0 0 0 0 0 0 0 0 0 0 0 0 0 0 0 127 0" result="hardAlpha"/>
<feOffset/>
<feGaussianBlur stdDeviation="13.8"/>
<feComposite in2="hardAlpha" operator="out"/>
<feColorMatrix type="matrix" values="0 0 0 0 1 0 0 0 0 1 0 0 0 0 1 0 0 0 1 0"/>
<feBlend mode="normal" in2="BackgroundImageFix" result="effect1_dropShadow_534_133"/>
<feBlend mode="normal" in="SourceGraphic" in2="effect1_dropShadow_534_133" result="shape"/>
</filter>
<filter id="filter4_d_534_133" x="17.4" y="251.4" width="200.982" height="200.982" filterUnits="userSpaceOnUse" color-interpolation-filters="sRGB">
<feFlood flood-opacity="0" result="BackgroundImageFix"/>
<feColorMatrix in="SourceAlpha" type="matrix" values="0 0 0 0 0 0 0 0 0 0 0 0 0 0 0 0 0 0 127 0" result="hardAlpha"/>
<feOffset/>
<feGaussianBlur stdDeviation="13.8"/>
<feComposite in2="hardAlpha" operator="out"/>
<feColorMatrix type="matrix" values="0 0 0 0 1 0 0 0 0 1 0 0 0 0 1 0 0 0 1 0"/>
<feBlend mode="normal" in2="BackgroundImageFix" result="effect1_dropShadow_534_133"/>
<feBlend mode="normal" in="SourceGraphic" in2="effect1_dropShadow_534_133" result="shape"/>
</filter>
<linearGradient id="paint0_linear_534_133" x1="925.5" y1="0" x2="925.5" y2="450" gradientUnits="userSpaceOnUse">
<stop stop-color="#00FF38"/>
<stop offset="0.915" stop-color="#7FF99A"/>
</linearGradient>
<linearGradient id="paint1_linear_534_133" x1="944.132" y1="137.95" x2="941.735" y2="376.998" gradientUnits="userSpaceOnUse">
<stop stop-color="#00FF47"/>
<stop offset="1" stop-color="#00F0FF"/>
</linearGradient>
</defs>
</svg>
